<svg width="82" height="48" viewBox="0 0 82 48" fill="none" xmlns="http://www.w3.org/2000/svg">
<path d="M7.768 47.408C7.512 47.408 7.384 47.216 7.384 46.832C7.384 46.576 7.512 46.4053 7.768 46.32C10.9253 45.296 14.4027 42.6293 18.2 38.32C21.656 34.352 24.7493 29.744 27.48 24.496L26.392 24.56C26.008 24.6027 25.6453 24.6667 25.304 24.752C23.7253 28.208 21.3573 31.6213 18.2 34.992C17.7307 35.504 16.8133 36.4 15.448 37.68L9.944 42.736C9.816 42.864 9.73067 42.8427 9.688 42.672C9.64533 42.5013 9.688 42.352 9.816 42.224C11.608 40.56 13.08 39.152 14.232 38C15.384 36.848 16.2587 35.952 16.856 35.312C19.9707 31.856 22.3387 28.4 23.96 24.944C20.0773 25.6267 16.3653 26.8213 12.824 28.528C9.112 30.3627 6.50933 32.3467 5.016 34.48C5.016 34.5227 4.99467 34.544 4.952 34.544C4.73867 34.544 4.58933 34.1813 4.504 33.456C4.504 33.328 4.48267 33.2 4.44 33.072C4.44 32.944 4.44 32.8373 4.44 32.752C4.44 32.3253 4.504 32.048 4.632 31.92C6.04 29.744 8.77067 27.8453 12.824 26.224C16.4933 24.816 20.4187 23.92 24.6 23.536C25.9653 20.08 26.648 16.6667 26.648 13.296C26.648 8.21867 24.6427 4.69867 20.632 2.736C18.84 3.12 17.0053 3.76 15.128 4.656C13.2507 5.552 11.5013 6.61867 9.88 7.856C8.25867 9.09333 6.89333 10.4587 5.784 11.952C6.808 12.6773 8.17333 13.4027 9.88 14.128C11.928 14.9813 14.3813 15.6 17.24 15.984C17.9227 14.8747 18.5413 13.6587 19.096 12.336C19.6507 10.9707 20.1627 9.54133 20.632 8.048C20.7173 7.83467 20.824 7.728 20.952 7.728C21.3787 7.728 21.4853 8.02667 21.272 8.624C20.504 11.3973 19.544 13.8933 18.392 16.112C19.5867 16.1973 20.7173 16.24 21.784 16.24C21.9547 16.24 22.04 16.3253 22.04 16.496C22.04 16.6667 21.9547 16.752 21.784 16.752C20.5467 16.752 19.3307 16.7093 18.136 16.624C15.0213 22.4267 11.288 25.328 6.936 25.328C5.10133 25.328 3.58667 24.752 2.392 23.6C1.19733 22.4053 0.6 20.848 0.6 18.928C0.6 16.5813 1.51733 14.1493 3.352 11.632L3.608 11.312C2.37067 10.16 1.752 8.96533 1.752 7.728C1.752 5.85067 3.032 4.22933 5.592 2.864C8.19467 1.49866 11.1173 0.815998 14.36 0.815998C16.4933 0.815998 18.456 1.136 20.248 1.776C21.4427 1.60533 22.5947 1.52 23.704 1.52C26.9893 1.52 29.5707 2.24533 31.448 3.696C33.5813 5.31733 34.648 7.57867 34.648 10.48C34.648 13.808 33.2827 18.1173 30.552 23.408C32.088 23.536 33.3893 23.7493 34.456 24.048C34.6267 24.0907 34.712 24.176 34.712 24.304C34.712 24.9013 34.392 25.0933 33.752 24.88C32.728 24.5813 31.4693 24.432 29.976 24.432C27.1173 29.68 23.6613 34.5013 19.608 38.896C15.2987 43.4613 11.4587 46.2773 8.088 47.344C8.00267 47.3867 7.896 47.408 7.768 47.408ZM4.184 10.544C7.68267 6.23466 12.568 3.39733 18.84 2.032C17.432 1.60533 15.896 1.392 14.232 1.392C11.3307 1.392 8.70667 2.01066 6.36 3.248C4.056 4.48533 2.904 5.95733 2.904 7.664C2.904 8.60266 3.33067 9.56267 4.184 10.544ZM25.88 23.408C26.2213 23.3653 26.584 23.344 26.968 23.344H28.056C30.872 17.6693 32.28 13.1253 32.28 9.712C32.28 4.80533 29.6133 2.352 24.28 2.352C23.4693 2.352 22.6587 2.416 21.848 2.544C25.7733 4.67733 27.736 8.304 27.736 13.424C27.736 16.88 27.1173 20.208 25.88 23.408ZM7.128 23.856C10.6693 23.856 13.9333 21.4027 16.92 16.496C13.7627 16.1547 11.224 15.5787 9.304 14.768C7.68267 14.0853 6.33867 13.3813 5.272 12.656C3.56533 15.0027 2.712 17.2213 2.712 19.312C2.712 20.72 3.11733 21.8293 3.928 22.64C4.73867 23.4507 5.80533 23.856 7.128 23.856ZM36.7075 38.256C35.3422 38.0427 34.6595 37.0827 34.6595 35.376C34.6595 32.7733 35.8542 29.8933 38.2435 26.736C40.7182 23.408 43.2782 21.744 45.9235 21.744C46.8195 21.744 47.6302 21.9573 48.3555 22.384C49.1235 22.768 49.5075 23.3867 49.5075 24.24C49.5075 25.2213 49.1022 25.776 48.2915 25.904C48.5475 25.4773 48.6755 25.0507 48.6755 24.624C48.6755 23.6853 48.1422 23.216 47.0755 23.216C46.0515 23.216 44.9422 23.728 43.7475 24.752C40.8035 27.2693 38.6488 30.192 37.2835 33.52C36.8568 34.544 36.6435 35.3973 36.6435 36.08C36.6435 36.6347 36.8355 36.912 37.2195 36.912C37.6462 36.912 38.3928 36.4213 39.4595 35.44C40.1848 34.7573 41.7635 32.688 44.1955 29.232C44.8355 28.336 45.3475 27.888 45.7315 27.888C46.0728 27.888 46.2435 28.784 46.2435 30.576V34.16C46.6275 36.0373 47.2888 36.976 48.2275 36.976C48.7395 36.976 49.3582 36.8053 50.0835 36.464C50.8515 36.08 51.5982 35.4827 52.3235 34.672L53.4755 33.456C53.6035 33.4133 53.7528 33.4987 53.9235 33.712C53.7528 34.1813 53.0062 34.9707 51.6835 36.08C50.0195 37.488 48.4835 38.192 47.0755 38.192C46.6915 38.192 46.3075 38.128 45.9235 38C44.8142 37.616 44.0888 36.4213 43.7475 34.416C43.6622 33.8613 43.5768 33.392 43.4915 33.008C43.4488 32.624 43.4275 32.304 43.4275 32.048C43.4275 31.92 43.4275 31.8133 43.4275 31.728C43.1715 32.24 42.4248 33.3067 41.1875 34.928C39.3528 37.3173 37.8595 38.4267 36.7075 38.256ZM51.911 38.128C51.4843 38.128 51.2923 37.9147 51.335 37.488C51.463 36.9333 51.6123 36.1013 51.783 34.992C51.9537 33.84 52.1457 32.368 52.359 30.576C52.4443 29.7653 52.5297 29.04 52.615 28.4C52.7003 27.7173 52.7643 27.0987 52.807 26.544L52.999 24.176C53.0417 23.7067 53.319 23.3013 53.831 22.96C54.3857 22.6187 54.9403 22.448 55.495 22.448C56.263 22.448 56.5403 22.768 56.327 23.408L55.431 26.736C55.2177 27.3333 55.0257 27.952 54.855 28.592C54.6843 29.232 54.4923 29.8933 54.279 30.576C55.3457 28.7413 56.6257 27.0133 58.119 25.392C59.783 23.6853 61.0203 22.832 61.831 22.832C62.855 22.832 63.5803 23.408 64.007 24.56C64.4763 25.6693 64.4977 26.224 64.071 26.224C63.9857 26.224 63.8363 26.0533 63.623 25.712C63.239 24.944 62.7057 24.56 62.023 24.56C60.3163 24.56 58.2043 26.4587 55.687 30.256C54.279 32.3893 53.2123 34.8427 52.487 37.616C52.4017 37.9573 52.2097 38.128 51.911 38.128ZM64.4575 38.256C63.0922 38.0427 62.4095 37.0827 62.4095 35.376C62.4095 32.7733 63.6042 29.8933 65.9935 26.736C68.4682 23.408 71.0282 21.744 73.6735 21.744C74.5695 21.744 75.3802 21.9573 76.1055 22.384C76.8735 22.768 77.2575 23.3867 77.2575 24.24C77.2575 25.2213 76.8522 25.776 76.0415 25.904C76.2975 25.4773 76.4255 25.0507 76.4255 24.624C76.4255 23.6853 75.8922 23.216 74.8255 23.216C73.8015 23.216 72.6922 23.728 71.4975 24.752C68.5535 27.2693 66.3988 30.192 65.0335 33.52C64.6068 34.544 64.3935 35.3973 64.3935 36.08C64.3935 36.6347 64.5855 36.912 64.9695 36.912C65.3962 36.912 66.1428 36.4213 67.2095 35.44C67.9348 34.7573 69.5135 32.688 71.9455 29.232C72.5855 28.336 73.0975 27.888 73.4815 27.888C73.8228 27.888 73.9935 28.784 73.9935 30.576V34.16C74.3775 36.0373 75.0388 36.976 75.9775 36.976C76.4895 36.976 77.1082 36.8053 77.8335 36.464C78.6015 36.08 79.3482 35.4827 80.0735 34.672L81.2255 33.456C81.3535 33.4133 81.5028 33.4987 81.6735 33.712C81.5028 34.1813 80.7562 34.9707 79.4335 36.08C77.7695 37.488 76.2335 38.192 74.8255 38.192C74.4415 38.192 74.0575 38.128 73.6735 38C72.5642 37.616 71.8388 36.4213 71.4975 34.416C71.4122 33.8613 71.3268 33.392 71.2415 33.008C71.1988 32.624 71.1775 32.304 71.1775 32.048C71.1775 31.92 71.1775 31.8133 71.1775 31.728C70.9215 32.24 70.1748 33.3067 68.9375 34.928C67.1028 37.3173 65.6095 38.4267 64.4575 38.256Z" fill="white"/>
</svg>
